<svg width="44" height="44" viewBox="0 0 44 44" fill="none" xmlns="http://www.w3.org/2000/svg">
<path d="M44 22.1348C44 9.90831 34.1495 -0.00268555 22 -0.00268555C9.84501 6.44533e-05 -0.00549316 9.90832 -0.00549316 22.1376C-0.00549316 33.1843 8.04101 42.3418 18.557 44.0028V28.5341H12.9745V22.1376H18.5625V17.2563C18.5625 11.7096 21.8488 8.64606 26.873 8.64606C29.282 8.64606 31.7983 9.07781 31.7983 9.07781V14.5228H29.0235C26.2928 14.5228 25.4403 16.2306 25.4403 17.9823V22.1348H31.5398L30.5663 28.5313H25.4375V44.0001C35.9535 42.3391 44 33.1816 44 22.1348Z" fill="#43224F"/>
</svg>
