<svg width="44" height="44" viewBox="0 0 44 44" fill="none" xmlns="http://www.w3.org/2000/svg">
<path d="M21.9941 29.3365C17.9544 29.3365 14.6578 26.0397 14.6578 22C14.6578 17.9603 17.9544 14.6635 21.9941 14.6635C26.0337 14.6635 29.3304 17.9603 29.3304 22C29.3304 26.0397 26.0337 29.3365 21.9941 29.3365ZM43.9975 22C43.9975 25.0381 44.0251 28.0486 43.8545 31.0811C43.6838 34.6035 42.8803 37.7296 40.3046 40.3054C37.7234 42.8866 34.6029 43.6847 31.0806 43.8553C28.0426 44.0259 25.0321 43.9984 21.9996 43.9984C18.9616 43.9984 15.9511 44.0259 12.9186 43.8553C9.39631 43.6847 6.27026 42.8811 3.69456 40.3054C1.11337 37.7241 0.315343 34.6035 0.144731 31.0811C-0.0258811 28.0431 0.00163702 25.0325 0.00163702 22C0.00163702 18.9675 -0.0258811 15.9514 0.144731 12.9189C0.315343 9.39649 1.11887 6.27037 3.69456 3.69463C6.27576 1.11339 9.39631 0.315349 12.9186 0.144733C15.9566 -0.0258818 18.9671 0.00163651 21.9996 0.00163651C25.0376 0.00163651 28.0481 -0.0258818 31.0806 0.144733C34.6029 0.315349 37.7289 1.11889 40.3046 3.69463C42.8858 6.27588 43.6838 9.39649 43.8545 12.9189C44.0306 15.9514 43.9975 18.9619 43.9975 22ZM21.9941 10.7119C15.7475 10.7119 10.7062 15.7533 10.7062 22C10.7062 28.2467 15.7475 33.2881 21.9941 33.2881C28.2407 33.2881 33.282 28.2467 33.282 22C33.282 15.7533 28.2407 10.7119 21.9941 10.7119ZM33.7443 31.1142C32.2859 31.1142 31.1081 32.292 31.1081 33.7504C31.1081 35.2089 32.2859 36.3867 33.7443 36.3867C35.2028 36.3867 36.3805 35.2089 36.3805 33.7504C36.381 33.4041 36.3131 33.0611 36.1808 32.7411C36.0484 32.421 35.8543 32.1302 35.6094 31.8853C35.3645 31.6404 35.0737 31.4463 34.7537 31.3139C34.4336 31.1816 34.0906 31.1137 33.7443 31.1142Z" fill="#43224F"/>
</svg>
