<svg width="44" height="44" viewBox="0 0 44 44" fill="none" xmlns="http://www.w3.org/2000/svg">
<path d="M0 22C0 31.3922 5.88683 39.4112 14.1717 42.5663C13.97 40.8485 13.7555 38.016 14.2175 36.0287C14.6153 34.32 16.786 25.1423 16.786 25.1423C16.786 25.1423 16.1315 23.8315 16.1315 21.89C16.1315 18.8467 17.8952 16.5733 20.0933 16.5733C21.9633 16.5733 22.8653 17.9758 22.8653 19.657C22.8653 21.5362 21.6682 24.3448 21.0503 26.95C20.5352 29.1298 22.1448 30.9082 24.2935 30.9082C28.1857 30.9082 31.1795 26.8033 31.1795 20.878C31.1795 15.6328 27.4102 11.968 22.0293 11.968C15.7997 11.968 12.1422 16.6412 12.1422 21.472C12.1422 23.3548 12.8663 25.3715 13.772 26.4697C13.8492 26.5526 13.9038 26.654 13.9304 26.7642C13.9571 26.8743 13.9549 26.9894 13.9242 27.0985C13.7573 27.7915 13.387 29.2783 13.3155 29.5827C13.2183 29.9823 12.9983 30.0685 12.5822 29.8742C9.84683 28.6018 8.13817 24.6033 8.13817 21.3913C8.13817 14.4815 13.156 8.13817 22.6068 8.13817C30.2042 8.13817 36.1093 13.552 36.1093 20.7863C36.1093 28.3342 31.3518 34.4098 24.7445 34.4098C22.5243 34.4098 20.4398 33.2548 19.7248 31.8927C19.7248 31.8927 18.6267 36.0763 18.3608 37.0993C17.8438 39.0867 16.4102 41.602 15.521 43.0302C17.5707 43.6608 19.745 44 22 44C34.1495 44 44 34.1495 44 22C44 9.8505 34.1495 0 22 0C9.8505 0 0 9.8505 0 22Z" fill="#43224F"/>
</svg>
